<svg width="16" height="16" viewBox="0 0 16 16" fill="none" xmlns="http://www.w3.org/2000/svg">
<g clip-path="url(#clip0_273_2886)">
<path d="M5.5135 15.1666H2.82016C1.48016 15.1666 0.833496 14.5466 0.833496 13.2666V2.73325C0.833496 1.45325 1.48683 0.833252 2.82016 0.833252H5.5135C6.8535 0.833252 7.50016 1.45325 7.50016 2.73325V13.2666C7.50016 14.5466 6.84683 15.1666 5.5135 15.1666ZM2.82016 1.83325C1.9735 1.83325 1.8335 2.05992 1.8335 2.73325V13.2666C1.8335 13.9399 1.9735 14.1666 2.82016 14.1666H5.5135C6.36016 14.1666 6.50016 13.9399 6.50016 13.2666V2.73325C6.50016 2.05992 6.36016 1.83325 5.5135 1.83325H2.82016Z" fill="white"/>
<path d="M13.18 9.16658H10.4867C9.14667 9.16658 8.5 8.54658 8.5 7.26658V2.73325C8.5 1.45325 9.15333 0.833252 10.4867 0.833252H13.18C14.52 0.833252 15.1667 1.45325 15.1667 2.73325V7.26658C15.1667 8.54658 14.5133 9.16658 13.18 9.16658ZM10.4867 1.83325C9.64 1.83325 9.5 2.05992 9.5 2.73325V7.26658C9.5 7.93992 9.64 8.16658 10.4867 8.16658H13.18C14.0267 8.16658 14.1667 7.93992 14.1667 7.26658V2.73325C14.1667 2.05992 14.0267 1.83325 13.18 1.83325H10.4867Z" fill="white"/>
<path d="M13.18 15.1667H10.4867C9.14667 15.1667 8.5 14.5467 8.5 13.2667V12.0667C8.5 10.7867 9.15333 10.1667 10.4867 10.1667H13.18C14.52 10.1667 15.1667 10.7867 15.1667 12.0667V13.2667C15.1667 14.5467 14.5133 15.1667 13.18 15.1667ZM10.4867 11.1667C9.64 11.1667 9.5 11.3934 9.5 12.0667V13.2667C9.5 13.9401 9.64 14.1667 10.4867 14.1667H13.18C14.0267 14.1667 14.1667 13.9401 14.1667 13.2667V12.0667C14.1667 11.3934 14.0267 11.1667 13.18 11.1667H10.4867Z" fill="white"/>
</g>
<defs>
<clipPath id="clip0_273_2886">
<rect width="16" height="16" fill="white"/>
</clipPath>
</defs>
</svg>
