<svg width="16" height="16" viewBox="0 0 16 16" fill="none" xmlns="http://www.w3.org/2000/svg">
<path d="M10.1592 14.8467H10.0726C7.11256 14.8467 5.68586 13.68 5.4392 11.0667C5.41253 10.7933 5.61253 10.5467 5.89253 10.52C6.1592 10.4933 6.41253 10.7 6.4392 10.9733C6.63253 13.0667 7.61923 13.8467 10.0792 13.8467H10.1659C12.8792 13.8467 13.8392 12.8867 13.8392 10.1733V5.82665C13.8392 3.11332 12.8792 2.15332 10.1659 2.15332H10.0792C7.6059 2.15332 6.6192 2.94665 6.4392 5.07999C6.40586 5.35332 6.17253 5.55999 5.89253 5.53332C5.61253 5.51332 5.41253 5.26665 5.43253 4.99332C5.6592 2.33999 7.09256 1.15332 10.0726 1.15332H10.1592C13.4326 1.15332 14.8326 2.55332 14.8326 5.82665V10.1733C14.8326 13.4467 13.4326 14.8467 10.1592 14.8467Z" fill="white"/>
<path d="M9.99924 8.5H2.4126C2.13926 8.5 1.9126 8.27333 1.9126 8C1.9126 7.72667 2.13926 7.5 2.4126 7.5H9.99924C10.2726 7.5 10.4992 7.72667 10.4992 8C10.4992 8.27333 10.2726 8.5 9.99924 8.5Z" fill="white"/>
<path d="M3.89964 10.7332C3.77297 10.7332 3.6463 10.6865 3.5463 10.5865L1.31297 8.35316C1.11964 8.15983 1.11964 7.83983 1.31297 7.6465L3.5463 5.41319C3.73964 5.21986 4.05964 5.21986 4.25297 5.41319C4.4463 5.60652 4.4463 5.92652 4.25297 6.11986L2.37297 7.99983L4.25297 9.87983C4.4463 10.0732 4.4463 10.3932 4.25297 10.5865C4.15964 10.6865 4.0263 10.7332 3.89964 10.7332Z" fill="white"/>
</svg>
