<svg width="16" height="16" viewBox="0 0 16 16" fill="none" xmlns="http://www.w3.org/2000/svg">
<path d="M10.312 1.81201C11.4206 1.44474 12.5923 1.30486 13.7563 1.3999H13.7593C13.9807 1.4048 14.1915 1.49523 14.3481 1.65186C14.5048 1.80851 14.5952 2.01926 14.6001 2.24072V2.24365C14.691 3.41964 14.5431 4.6018 14.1655 5.71924C13.7883 6.83564 13.1893 7.86439 12.4048 8.74365L10.5679 10.3218L10.5454 10.3413L10.5513 10.3696L11.0513 12.7603C11.0851 12.9157 11.0794 13.0773 11.0347 13.23C10.9898 13.3827 10.907 13.5217 10.7944 13.6343L10.1147 14.314C9.9378 14.4895 9.69893 14.5883 9.44971 14.5894H9.34033C9.20031 14.5748 9.06515 14.5297 8.94482 14.4565C8.85352 14.401 8.77217 14.3307 8.70459 14.2485L8.64209 14.1626L7.32178 12.103L7.27979 12.1294L7.32275 12.1021L7.31494 12.0942L7.23584 12.0142H7.23486L4.03564 8.76514L4.03662 8.76416L4.02588 8.75732L3.896 8.67725H3.89697L1.8374 7.35791C1.71802 7.28028 1.61745 7.17684 1.54346 7.05518C1.46946 6.93349 1.42367 6.79651 1.40967 6.65479L1.40381 6.54932C1.40389 6.44416 1.42203 6.33959 1.45654 6.23975C1.50248 6.10687 1.57692 5.98569 1.67529 5.88525L2.35498 5.20557C2.46743 5.09311 2.6067 5.01017 2.75928 4.96533C2.91187 4.92055 3.07361 4.91494 3.229 4.94873H3.22998L5.62939 5.44873L5.65869 5.45459L5.67822 5.43213L7.30518 3.53467C8.18165 2.76457 9.20445 2.17893 10.312 1.81201ZM9.5376 11.5718L8.7876 12.2114L8.75342 12.2407L8.77881 12.2778L9.44873 13.2778L9.47998 13.3257L9.52295 13.2876L9.8833 12.9673L9.90479 12.9478L9.89893 12.9194L9.61865 11.5991L9.60107 11.5171L9.5376 11.5718ZM3.77197 11.4497C3.69774 11.4469 3.62447 11.4643 3.56006 11.4995L3.49854 11.5405L3.49365 11.5454C3.2004 11.855 2.99979 12.239 2.91162 12.6538L2.88037 12.8335V13.1099H3.15674C3.63992 13.0464 4.09101 12.8317 4.44482 12.4966L4.4458 12.4976L4.45264 12.4858C4.53421 12.3538 4.56063 12.1947 4.52588 12.0435C4.49978 11.93 4.44095 11.8277 4.35791 11.7485L4.26709 11.6772C4.20467 11.6108 4.131 11.5558 4.04834 11.5171C4.00504 11.4968 3.9598 11.4815 3.91357 11.4702L3.77197 11.4497ZM13.0405 2.53955C11.3545 2.53138 9.71472 3.09282 8.38721 4.13232L8.10693 4.36182L8.10205 4.36768L4.9624 8.04736L4.93213 8.08252L4.96436 8.11475L7.88428 11.0356L7.91748 11.0679L7.95264 11.0376L11.6323 7.89795L11.6001 7.85986L11.6333 7.89795L11.6382 7.89209C12.8999 6.42543 13.5484 4.52934 13.4497 2.59717L13.4478 2.55225L13.4028 2.55029L13.0405 2.53955ZM3.07275 6.1167L2.75244 6.47705L2.71436 6.51904L2.76221 6.55127L3.76221 7.22119L3.79932 7.24658L3.82764 7.2124L4.46826 6.4624L4.52295 6.39795L4.43994 6.38135L3.12061 6.10107L3.09229 6.09521L3.07275 6.1167ZM1.71045 13.7573C1.69336 13.3929 1.71566 13.0277 1.77881 12.6685H1.77979V12.6665C1.88293 11.9527 2.20574 11.2888 2.70361 10.7671C3.03684 10.4689 3.47367 10.3125 3.92041 10.3325C4.36699 10.3525 4.78803 10.5469 5.09326 10.8735V10.8745L5.09619 10.8774C5.43293 11.1794 5.6371 11.6026 5.6626 12.0542C5.68789 12.5044 5.53379 12.9462 5.23486 13.2837C4.71517 13.7862 4.04955 14.1111 3.3335 14.2104H3.33154C3.04405 14.2625 2.75164 14.2889 2.45947 14.2896H1.71045V13.7573Z" fill="white" stroke="black" stroke-width="0.1"/>
<path d="M11.1297 6.63002C11.239 6.51527 11.3243 6.37987 11.3805 6.23174C11.4367 6.08361 11.4628 5.92574 11.4572 5.7674C11.4516 5.60905 11.4145 5.45342 11.3479 5.30962C11.2814 5.16583 11.1868 5.03677 11.0697 4.93002C10.9664 4.80746 10.8387 4.70765 10.6949 4.6369C10.551 4.56615 10.3941 4.52598 10.2339 4.51894C10.0737 4.5119 9.91385 4.53813 9.76434 4.59599C9.61482 4.65384 9.47893 4.74206 9.36522 4.85507C9.25151 4.96809 9.16246 5.10345 9.10369 5.2526C9.04493 5.40176 9.01772 5.56148 9.02378 5.72169C9.02984 5.88189 9.06904 6.0391 9.13892 6.18339C9.20879 6.32768 9.30781 6.45592 9.42973 6.56002C9.53654 6.6766 9.66533 6.77092 9.8087 6.83757C9.95208 6.90422 10.1072 6.94188 10.2652 6.94839C10.4232 6.95489 10.5809 6.93011 10.7292 6.87548C10.8776 6.82084 11.0137 6.73742 11.1297 6.63002Z" fill="white"/>
</svg>
