<svg width="18" height="18" viewBox="0 0 18 18" fill="none" xmlns="http://www.w3.org/2000/svg">
<path d="M10.8252 0.5L11.165 2.83789L11.207 3.12402L11.4766 3.23047C11.9978 3.43675 12.4705 3.71377 12.9238 4.04883L13.1465 4.21289L13.4033 4.1123L15.6738 3.22559L17.4844 6.27051L15.5703 7.71973L15.3281 7.90332L15.3789 8.20312C15.4211 8.44939 15.4395 8.72005 15.4395 9C15.4395 9.2883 15.421 9.5563 15.3857 9.81348L15.3467 10.1016L15.5781 10.2783L17.4746 11.7285L15.6641 14.7734L13.3936 13.8877L13.1338 13.7861L12.9111 13.9541C12.4723 14.2851 11.9907 14.5622 11.4668 14.7695L11.1973 14.876L11.1553 15.1621L10.8154 17.5H7.1748L6.83496 15.1621L6.79297 14.876L6.52344 14.7695L6.33008 14.6885C5.88426 14.4928 5.47273 14.2443 5.07617 13.9512L4.85352 13.7871L4.59668 13.8877L2.3252 14.7734L0.514648 11.7285L2.42969 10.2803L2.67188 10.0967L2.62109 9.79688C2.57895 9.55094 2.56055 9.27101 2.56055 9C2.56055 8.74948 2.59469 8.47122 2.64062 8.20312L2.69141 7.90332L2.44922 7.71973L0.53418 6.27051L2.33594 3.22559L4.60645 4.1123L4.8623 4.21289L5.08398 4.0498C5.52987 3.7223 6.01297 3.43634 6.5332 3.23047L6.80273 3.12402L6.84473 2.83789L7.18457 0.5H10.8252ZM2.33594 14.8047V14.8057V14.8047ZM9 5.125C6.82866 5.125 5.03027 6.85466 5.03027 9C5.03027 11.1453 6.82866 12.875 9 12.875C11.1713 12.875 12.9697 11.1453 12.9697 9C12.9697 6.85466 11.1713 5.125 9 5.125Z" fill="#939395" stroke="#939395"/>
</svg>
